<?xml version="1.0" standalone="no"?><!DOCTYPE svg PUBLIC "-//W3C//DTD SVG 1.1//EN" "http://www.w3.org/Graphics/SVG/1.1/DTD/svg11.dtd"><svg t="1576029150898" class="icon" viewBox="0 0 1024 1024" version="1.1" xmlns="http://www.w3.org/2000/svg" p-id="2206" xmlns:xlink="http://www.w3.org/1999/xlink" width="64" height="64"><defs><style type="text/css"></style></defs><path d="M929.65168 694.91803 721.210347 694.91803l114.981754-102.078887c75.617212-65.793472 108.831684-104.545054 108.831684-167.236885l0-1.234107c0-70.096475-55.957453-121.750925-133.421732-121.750925-70.714552 0-110.065791 29.543873-145.731082 79.332836-3.068895 3.699252-4.903683 8.603959-4.903683 13.506619 0 12.302187 9.840112 22.1423 22.13002 22.1423 7.983835 0 14.137998-3.670599 17.822924-8.603959 30.745235-40.584324 61.490469-62.693878 106.994849-62.693878 46.722114 0 86.685291 31.945573 86.685291 82.367963 0 43.019793-23.356964 76.233242-89.77056 135.258567L657.88509 693.650153c-7.986905 6.801916-11.69025 13.539364-11.69025 22.776749 0 13.505595 10.456143 22.74298 24.612561 22.74298l258.843256 0c12.289907 0 22.740934-9.838066 22.740934-22.143323C952.391591 704.719256 941.940564 694.91803 929.65168 694.91803z" p-id="2207" fill="#ffffff"></path><path d="M598.809623 256.796644 274.819624 680.443363 274.819624 340.631004c0-51.754734-33.828456-93.904717-75.397201-93.904717l-49.803289 0c-14.139022 0-25.611308 11.469216-25.611308 25.608238s11.472286 25.611308 25.611308 25.611308l49.803289 0c11.187807 0 24.177656 18.641569 24.177656 42.684148l0 347.150488c0 40.513716 18.538215 52.819996 29.595039 56.55404 3.102664 1.069355 7.072069 1.938142 11.720949 1.938142 11.973706 0 28.428469-5.736655 46.118364-28.880771l328.457754-429.516404c8.588609-11.203156 6.453992-27.279297-4.78191-35.881209C623.486652 243.424078 607.412558 245.525949 598.809623 256.796644z" p-id="2208" fill="#ffffff"></path></svg>